<svg width="15" height="13" viewBox="0 0 15 13" fill="none" xmlns="http://www.w3.org/2000/svg">
<path d="M0.902519 5.4332C0.902519 5.4332 7.41282 2.69117 9.6707 1.72564C10.5363 1.33946 13.4715 0.103565 13.4715 0.103565C13.4715 0.103565 14.8263 -0.43709 14.7134 0.875984C14.6757 1.41669 14.3747 3.30907 14.0736 5.35597C13.622 8.25252 13.1328 11.4194 13.1328 11.4194C13.1328 11.4194 13.0576 12.3077 12.4178 12.4621C11.7781 12.6166 10.7244 11.9215 10.5363 11.767C10.3857 11.6511 7.71386 9.91318 6.73544 9.06353C6.47201 8.83182 6.17097 8.3684 6.77304 7.82769C8.12781 6.55321 9.74596 4.96978 10.7244 3.96566C11.176 3.50218 11.6275 2.42082 9.74596 3.73389C7.07413 5.62632 4.43991 7.40287 4.43991 7.40287C4.43991 7.40287 3.83778 7.78905 2.70884 7.44146C1.57985 7.09392 0.262738 6.63045 0.262738 6.63045C0.262738 6.63045 -0.640371 6.05115 0.902519 5.4332Z" fill="white"/>
</svg>
