<svg width="32" height="32" viewBox="0 0 32 32" fill="none" xmlns="http://www.w3.org/2000/svg">
<path d="M8.00009 23.3601L9.14805 19.0955C8.22225 17.4342 7.92811 15.4957 8.31962 13.6355C8.71112 11.7754 9.76201 10.1184 11.2794 8.96878C12.7969 7.81911 14.679 7.25382 16.5806 7.37664C18.4821 7.49946 20.2755 8.30215 21.6316 9.63741C22.9877 10.9727 23.8156 12.751 23.9633 14.6459C24.1111 16.5409 23.5687 18.4254 22.4359 19.9538C21.303 21.4821 19.6556 22.5516 17.7959 22.9662C15.9363 23.3807 13.9891 23.1124 12.3117 22.2106L8.00009 23.3601ZM12.5196 20.6147L12.7863 20.7725C14.0012 21.4908 15.4203 21.788 16.8223 21.6179C18.2243 21.4478 19.5304 20.8198 20.5373 19.8319C21.5441 18.844 22.1951 17.5516 22.3887 16.1562C22.5822 14.7608 22.3076 13.3406 21.6075 12.1171C20.9075 10.8936 19.8213 9.9355 18.5183 9.39202C17.2153 8.84854 15.7687 8.75025 14.4038 9.11248C13.039 9.47471 11.8326 10.2771 10.9727 11.3946C10.1128 12.5121 9.64763 13.882 9.64972 15.2907C9.64858 16.4588 9.97245 17.6043 10.5853 18.5996L10.7525 18.8746L10.1107 21.2549L12.5196 20.6147Z" fill="white"/>
<path fill-rule="evenodd" clip-rule="evenodd" d="M18.9914 16.3858C18.8351 16.26 18.6521 16.1715 18.4563 16.127C18.2605 16.0824 18.057 16.0831 17.8615 16.1288C17.5678 16.2505 17.3779 16.7103 17.1881 16.9403C17.1481 16.9954 17.0893 17.034 17.0227 17.049C16.9561 17.0639 16.8864 17.0541 16.8265 17.0214C15.751 16.6012 14.8495 15.8307 14.2685 14.835C14.2189 14.7729 14.1955 14.694 14.2031 14.6149C14.2106 14.5359 14.2487 14.4629 14.3092 14.4112C14.5209 14.2022 14.6763 13.9433 14.7611 13.6584C14.7799 13.3442 14.7078 13.0312 14.5532 12.7568C14.4337 12.372 14.2063 12.0295 13.8979 11.7695C13.7388 11.6982 13.5624 11.6742 13.39 11.7006C13.2176 11.727 13.0565 11.8026 12.9262 11.9183C12.7 12.113 12.5204 12.3558 12.4007 12.6288C12.2811 12.9019 12.2243 13.1983 12.2347 13.4961C12.2354 13.6634 12.2566 13.8299 12.298 13.992C12.4029 14.3814 12.5643 14.7535 12.777 15.0965C12.9305 15.3592 13.098 15.6135 13.2787 15.8583C13.866 16.6625 14.6043 17.3454 15.4526 17.8689C15.8783 18.1349 16.3332 18.3513 16.8085 18.5136C17.3021 18.7368 17.8472 18.8225 18.3858 18.7615C18.6926 18.7152 18.9834 18.5943 19.2324 18.4096C19.4815 18.2249 19.6812 17.9819 19.814 17.7021C19.892 17.5331 19.9157 17.3441 19.8818 17.1611C19.8004 16.787 19.2987 16.5661 18.9914 16.3858Z" fill="white"/>
</svg>
