<svg width="12" height="13" viewBox="0 0 12 13" fill="none" xmlns="http://www.w3.org/2000/svg">
<path d="M7.46166 4.04408L6.43043 2.24898C6.23896 1.91568 5.75867 1.91409 5.56499 2.24611L4.47682 4.11155C4.33269 4.35863 4.08965 4.53216 3.80916 4.58826L2.3223 4.88563C1.93721 4.96265 1.78715 5.43319 2.05656 5.71893L3.13198 6.85952C3.36194 7.10342 3.4544 7.44631 3.37823 7.77276L2.89146 9.8589C2.7914 10.2877 3.25445 10.6272 3.63328 10.4027L5.49039 9.30215C5.80473 9.11588 6.19565 9.11588 6.51 9.30215L8.3671 10.4027C8.74594 10.6272 9.20899 10.2877 9.10893 9.8589L8.6179 7.75449C8.54408 7.43816 8.62852 7.10568 8.84433 6.8629L9.92107 5.65157C10.1776 5.36295 10.0241 4.90483 9.64542 4.8291L8.13265 4.52654C7.84989 4.46999 7.6053 4.29413 7.46166 4.04408Z" fill="#FECC27"/>
</svg>
